<svg version="1.1" xmlns="http://www.w3.org/2000/svg" style="display: block;" viewBox="468 5 1113 1107" width="1113" height="1107" preserveAspectRatio="xMidYMid meet">
<path fill="rgb(0,0,0)" d="M 623.026 16.3108 C 632.228 14.8021 651.83 15.7316 661.92 15.7299 L 737.037 15.7516 L 991.645 15.7518 L 1269.3 15.7788 L 1346.98 15.7489 C 1361.56 15.6892 1382.05 14.9422 1395.96 16.6334 C 1423.61 19.9928 1453.43 33.5654 1475.1 50.8262 C 1483.07 57.1784 1491.06 66.1715 1498.81 73.1513 C 1506.2 79.7985 1514.78 86.5717 1521.67 93.5955 C 1548.38 120.5 1565.03 155.763 1568.84 193.48 C 1570.54 208.923 1569.95 229.237 1569.95 245.107 L 1569.97 327.828 L 1569.95 598.891 L 1569.94 841.997 L 1570.01 913.185 C 1570.01 929.422 1570.59 947.805 1568.52 963.672 C 1564.6 993.162 1552.54 1020.98 1533.68 1043.98 C 1505.22 1079.21 1469.37 1095.68 1425.25 1100.47 C 1419.45 1101.33 1400.21 1100.95 1393.26 1100.95 L 1328.8 1100.9 L 1105.6 1100.86 L 801.816 1100.88 L 708.958 1100.94 C 690.137 1100.95 671.036 1101.55 652.324 1099.92 C 624.348 1097.48 603.134 1089.26 579.796 1073.52 C 564.007 1062.87 555.267 1052.52 542.598 1038.8 C 535.182 1031.05 527.065 1024.01 519.901 1016.02 C 479.873 971.326 478.795 925.375 478.894 869.015 L 478.92 802.773 L 478.933 560.041 L 478.953 301.03 L 478.933 224.319 C 478.932 201.742 478.362 178.787 481.26 156.646 C 488.59 100.624 526.23 51.34 578.032 28.9406 C 594.025 22.0251 605.592 19.3541 623.026 16.3108 z"/>
<path fill="rgb(63,79,251)" d="M 632.023 48.4019 C 645.03 46.7443 664.788 47.8696 678.408 47.8898 L 762.712 47.9349 L 1033.32 47.939 L 1271.65 47.9102 L 1344 47.8399 C 1357.98 47.8333 1376.83 47.2972 1390.26 48.8519 C 1413.29 51.6371 1435.11 60.7388 1453.29 75.1507 C 1481 96.8903 1498.83 128.833 1502.79 163.827 C 1504.62 179.173 1504.01 199.165 1503.97 214.93 L 1503.9 287.432 L 1503.9 542.081 L 1503.94 799.58 L 1503.94 877.592 C 1503.94 890.842 1504.49 911.784 1503.02 924.31 C 1500.23 948.1 1490.94 970.66 1476.17 989.522 C 1453.17 1018.67 1422.25 1034.57 1385.74 1038.87 C 1332.76 1040.63 1271.36 1039.13 1217.6 1039.13 L 896.323 1039.12 L 716.824 1039.14 C 688.03 1039.16 653.953 1040.13 625.714 1038.14 C 606.315 1036.77 578.133 1024.42 562.937 1011.88 C 535.944 989.607 516.469 958.628 513.246 923.193 C 511.718 906.397 512.221 886.862 512.232 869.773 L 512.241 786.913 L 512.199 515.794 L 512.202 281.983 L 512.127 213.306 C 512.121 197.478 511.775 177.251 513.761 161.842 C 516.75 137.523 526.615 114.562 542.198 95.6548 C 565.598 67.164 595.669 52.0352 632.023 48.4019 z"/>
<path fill="rgb(255,252,252)" d="M 681.65 193.077 C 698.734 196.781 718.521 203.115 735.794 207.797 C 784.407 220.967 832.552 235.81 880.141 252.3 C 928.686 269.387 972.12 284.075 1007.96 322.829 C 1045.99 282.673 1094.3 266.5 1145.26 248.907 C 1207.55 227.966 1270.61 209.388 1334.3 193.212 C 1334.43 194.986 1334.53 196.762 1334.59 198.54 C 1335.44 227.908 1334.31 262.362 1334.45 292.12 C 1334.65 315.844 1334.65 339.57 1334.46 363.294 C 1334.39 413.764 1339.71 440.354 1302.92 479.048 C 1306.14 481.792 1309.43 484.619 1312.45 487.577 C 1321.96 496.815 1328.66 508.556 1331.78 521.441 C 1335.83 538.518 1334.52 576.124 1334.56 595.337 C 1334.32 641.617 1334.36 687.899 1334.66 734.179 C 1254.85 758.212 1143.62 779.342 1071.89 821.958 L 1358.55 821.995 L 1358.6 272.34 C 1372.09 272.286 1386.08 272.012 1399.51 272.701 C 1400.09 293.661 1399.54 317.434 1399.53 338.578 L 1399.41 469.508 L 1399.35 863.014 C 1284.08 864.669 1164.91 863.115 1049.33 863.101 C 1049.34 873.309 1049.27 883.517 1049.12 893.724 C 1021.79 894.046 994.466 894.079 967.141 893.822 C 966.924 883.775 967.054 873.255 967.022 863.166 C 850.776 861.391 732.759 864.237 616.29 863.017 C 617.28 795.835 616.257 725.854 616.273 658.502 L 616.14 272.621 C 629.859 272.167 643.59 272.191 657.307 272.692 L 657.204 822.041 L 944.376 821.893 C 880.122 783.156 755.93 754.995 681.912 734.183 C 681.474 694.329 681.33 654.472 681.481 614.616 C 681.478 590.85 680.982 566.908 681.789 543.175 C 695.395 546.878 708.887 550.452 722.322 554.751 C 721.271 601.987 722.061 655.075 722.324 702.555 C 778.456 716.715 837.276 733.31 891.586 753.396 C 908.525 759.66 926.607 766.519 942.672 774.668 C 958.336 782.724 973.214 792.222 987.115 803.04 C 987.602 740.741 987.698 678.44 987.404 616.141 L 987.388 362.253 C 978.542 348.399 961.581 333.205 947.26 325.271 C 908.289 303.679 862.694 289.004 820.391 275.7 C 787.878 265.476 755.657 255.289 722.75 247.301 C 721.533 270.412 722.532 295.176 722.469 318.43 L 722.316 453.371 C 742 457.359 768.026 465.831 787.845 471.632 C 842.258 487.558 894.163 504.189 945.55 528.224 C 945.784 543.181 945.794 558.141 945.579 573.099 C 879.747 541.639 817.859 522.455 747.718 502.611 C 725.971 496.458 703.331 491.729 681.87 484.938 C 681.297 422.988 681.239 361.035 681.696 299.084 C 681.78 264.115 681.026 227.986 681.65 193.077 z"/>
<path fill="rgb(63,79,251)" d="M 1289.84 248.203 L 1292 248.185 L 1293.22 249.985 C 1294.89 263.811 1293.43 294.628 1293.58 310.483 C 1293.51 342.654 1294.48 374.619 1292.97 406.763 C 1291.74 439.122 1272.21 457.9 1242.79 467.036 C 1184.75 485.063 1125.3 501.583 1070.51 528.237 C 1071.07 542.51 1070.63 559.28 1070.54 573.691 C 1117.51 549.929 1164.46 533.31 1215.54 518.389 C 1239.97 511.251 1284.35 491.786 1292.51 534.56 C 1295.54 550.418 1293.71 575.608 1293.69 592.712 L 1293.79 702.419 C 1277.33 707.384 1256.94 712.159 1240.02 716.748 C 1181.91 733.752 1119.7 751.065 1065.59 778.801 C 1053.88 784.8 1039.72 795.172 1028.89 803.027 C 1027.88 743.322 1028.68 681.557 1028.67 621.704 L 1028.78 361.837 C 1037.28 349.363 1055.2 332.326 1068.52 325.565 C 1135.91 291.365 1216.92 267.166 1289.84 248.203 z"/>
<path fill="rgb(255,252,252)" d="M 1248.78 342.18 L 1250.54 342.307 C 1252.81 346.013 1252.03 377.643 1252.03 383.892 C 1194.98 400.822 1124.7 421.336 1072.51 449.361 L 1071.41 449.478 C 1070.2 447.845 1070.52 410.028 1070.44 404.41 C 1130.87 376.96 1185.14 360.372 1248.78 342.18 z"/>
<path fill="rgb(255,252,252)" d="M 1248.69 592.029 L 1250.82 592.214 C 1252.8 595.532 1252.05 628.537 1252.03 634.277 C 1192.25 650.408 1128.37 670.331 1073.46 698.909 C 1072.3 699.561 1072.96 699.353 1071.27 698.968 C 1070.24 695.04 1070.6 661.319 1070.53 654.498 C 1119.32 629.397 1195.85 607.56 1248.69 592.029 z"/>
<path fill="rgb(255,252,252)" d="M 764.748 341.355 C 825.408 359.341 888.275 377.602 945.739 404.34 C 945.926 419.487 945.858 434.637 945.536 449.782 C 940.427 447.57 935.2 444.715 930.125 442.334 C 877.357 417.576 819.843 400.599 764.196 383.828 L 764.748 341.355 z"/>
<path fill="rgb(255,252,252)" d="M 764.781 591.293 C 832.254 612.562 880.01 624.357 945.852 654.368 L 945.531 700.224 C 891.955 671.006 823.441 650.997 764.397 634.208 L 764.781 591.293 z"/>
</svg>