<svg xmlns="http://www.w3.org/2000/svg" viewBox="150 150 211 213" width="211" height="213">
<path d="M 186.49 172.88 C 226.00 167.87 265.50 162.77 305.01 157.80 C 315.90 156.53 327.19 161.37 333.78 170.13 C 337.37 174.66 339.41 180.26 340.21 185.95 C 345.02 223.95 349.84 261.93 354.60 299.93 C 356.17 308.82 353.52 318.09 348.25 325.32 C 344.83 331.46 339.37 336.13 333.20 339.37 C 330.60 340.31 327.95 341.23 325.19 341.55 C 289.16 346.35 253.09 350.82 217.05 355.56 C 210.75 356.43 204.33 357.50 197.97 356.55 C 187.30 354.68 177.94 347.22 173.77 337.21 C 172.84 334.50 171.89 331.76 171.55 328.91 C 166.87 290.03 161.66 251.21 157.01 212.33 C 156.18 205.44 158.78 198.84 161.72 192.76 C 165.78 182.37 175.62 174.87 186.49 172.88 Z" fill="#010402" opacity="1.00" stroke="#010402" stroke-width="0.25"/>
<path d="M 300.82 168.77 C 306.19 168.13 312.01 167.46 316.98 170.09 C 323.47 172.55 328.06 178.87 329.38 185.56 C 331.46 200.02 333.27 214.52 334.85 229.04 C 337.54 248.99 339.90 268.99 342.44 288.96 C 342.96 295.35 344.71 301.66 344.35 308.10 C 343.18 314.51 339.85 320.94 334.05 324.31 C 329.60 327.30 324.18 328.02 318.96 328.41 C 282.95 333.14 246.91 337.64 210.90 342.32 C 206.81 342.88 202.67 342.52 198.72 341.35 C 195.49 339.82 192.15 338.32 189.76 335.56 C 187.41 331.97 184.61 328.42 184.19 323.98 C 179.80 289.28 175.33 254.57 171.01 219.86 C 170.20 213.31 168.76 206.62 170.04 200.04 C 171.83 194.71 174.89 189.41 179.89 186.50 C 182.87 184.45 186.40 183.55 189.87 182.76 C 218.98 179.84 247.93 175.38 276.99 172.01 C 284.89 170.57 292.94 170.24 300.82 168.77 Z" fill="#3e57f6" opacity="1.00" stroke="#3e57f6" stroke-width="0.25"/>
<path d="M 281.93 214.45 C 288.63 213.79 295.46 212.57 302.15 213.94 C 307.40 215.48 312.98 218.22 315.36 223.46 C 317.26 228.00 318.42 233.19 316.90 238.02 C 315.93 241.78 313.32 244.77 310.65 247.46 C 314.65 249.05 318.95 250.95 321.21 254.84 C 326.18 262.02 326.25 272.73 320.41 279.43 C 315.55 284.33 308.79 286.90 302.03 287.71 C 288.84 289.39 275.64 291.08 262.44 292.66 C 259.38 267.70 255.99 242.77 253.30 217.78 C 262.88 216.98 272.41 215.70 281.93 214.45 Z" fill="#fefefe" opacity="1.00" stroke="#fefefe" stroke-width="0.25"/>
<path d="M 200.05 227.05 C 212.45 219.16 228.61 219.27 242.00 224.59 C 241.51 229.44 239.72 234.01 238.56 238.71 C 231.33 235.34 223.01 233.90 215.16 235.69 C 211.76 236.61 208.18 238.50 206.70 241.89 C 206.27 244.20 206.33 247.08 208.49 248.56 C 212.71 251.62 218.15 251.67 223.10 252.45 C 230.56 253.46 238.70 254.25 244.75 259.22 C 249.73 263.13 251.63 269.82 251.36 275.95 C 251.07 283.71 245.95 290.78 239.09 294.20 C 230.95 299.07 221.14 299.26 211.94 298.74 C 205.61 298.49 199.73 295.84 194.11 293.16 C 195.37 288.43 196.89 283.75 198.61 279.16 C 206.78 284.08 216.76 285.90 226.12 284.01 C 229.25 283.26 232.00 281.52 234.49 279.55 C 234.61 277.15 234.62 274.75 234.53 272.35 C 229.85 267.84 223.07 267.82 217.06 266.82 C 209.08 265.89 200.30 264.54 194.64 258.22 C 186.88 248.95 189.67 233.21 200.05 227.05 Z" fill="#fefefe" opacity="1.00" stroke="#fefefe" stroke-width="0.25"/>
<path d="M 271.36 229.45 C 278.59 228.77 285.75 227.19 293.03 227.16 C 296.61 226.89 300.05 229.53 300.93 232.97 C 301.69 235.20 300.91 237.52 300.54 239.75 C 298.01 241.88 295.08 243.59 291.72 243.89 C 285.60 244.55 279.52 245.59 273.36 245.88 C 272.53 240.42 272.05 234.92 271.36 229.45 Z" fill="#3e57f6" opacity="1.00" stroke="#3e57f6" stroke-width="0.25"/>
<path d="M 275.10 259.44 C 282.34 258.09 289.70 257.56 297.01 256.65 C 301.22 256.11 306.03 258.15 307.44 262.37 C 307.99 265.46 308.29 269.34 305.57 271.55 C 302.46 274.37 298.04 274.54 294.10 275.12 C 288.33 275.54 282.64 276.80 276.84 276.77 C 276.65 270.95 275.34 265.25 275.10 259.44 Z" fill="#3e57f6" opacity="1.00" stroke="#3e57f6" stroke-width="0.25"/>
</svg>